<mxfile host="app.diagrams.net" modified="2021-06-27T15:23:32.867Z" agent="5.0 (Windows NT 10.0; Win64; x64) AppleWebKit/537.36 (KHTML, like Gecko) Chrome/91.0.4472.124 Safari/537.36" etag="sojZzIP1P0sHgJNFIilS" version="14.7.2" type="github">
  <diagram id="h_e5mXC4bzQxHP35NyD7" name="第 1 页">
    <mxGraphModel dx="1038" dy="585" grid="1" gridSize="10" guides="1" tooltips="1" connect="1" arrows="1" fold="1" page="1" pageScale="1" pageWidth="827" pageHeight="1169" math="0" shadow="0">
      <root>
        <mxCell id="0" />
        <mxCell id="1" parent="0" />
        <mxCell id="fYEtyLHJQhTUv1WF9Uro-185" style="edgeStyle=orthogonalEdgeStyle;curved=1;rounded=0;orthogonalLoop=1;jettySize=auto;html=1;exitX=1;exitY=0.5;exitDx=0;exitDy=0;entryX=0.1;entryY=0.5;entryDx=0;entryDy=0;entryPerimeter=0;fontSize=19;fontColor=#FF9933;" edge="1" parent="1" source="fYEtyLHJQhTUv1WF9Uro-186" target="fYEtyLHJQhTUv1WF9Uro-223">
          <mxGeometry relative="1" as="geometry" />
        </mxCell>
        <mxCell id="fYEtyLHJQhTUv1WF9Uro-186" value="dict&amp;nbsp; *dict" style="rounded=0;whiteSpace=wrap;html=1;fontSize=26;fontStyle=1;fillColor=none;strokeColor=#FF9933;fontColor=#FF8000;" vertex="1" parent="1">
          <mxGeometry x="6" y="96" width="181" height="34" as="geometry" />
        </mxCell>
        <mxCell id="fYEtyLHJQhTUv1WF9Uro-187" value="expires" style="rounded=0;whiteSpace=wrap;html=1;fontSize=19;strokeColor=#FF9933;" vertex="1" parent="1">
          <mxGeometry x="6" y="130" width="181" height="34" as="geometry" />
        </mxCell>
        <mxCell id="fYEtyLHJQhTUv1WF9Uro-188" value="blocking_keys" style="rounded=0;whiteSpace=wrap;html=1;fontSize=19;strokeColor=#FF9933;fontStyle=0;fontColor=#29282A;" vertex="1" parent="1">
          <mxGeometry x="6" y="164" width="181" height="34" as="geometry" />
        </mxCell>
        <mxCell id="fYEtyLHJQhTUv1WF9Uro-189" value="ready_keys" style="rounded=0;whiteSpace=wrap;html=1;fontSize=19;strokeColor=#FF9933;" vertex="1" parent="1">
          <mxGeometry x="6" y="198" width="181" height="34" as="geometry" />
        </mxCell>
        <mxCell id="fYEtyLHJQhTUv1WF9Uro-190" value="watched_keys" style="rounded=0;whiteSpace=wrap;html=1;fontSize=19;strokeColor=#FF9933;" vertex="1" parent="1">
          <mxGeometry x="6" y="232" width="181" height="34" as="geometry" />
        </mxCell>
        <mxCell id="fYEtyLHJQhTUv1WF9Uro-191" value="id" style="rounded=0;whiteSpace=wrap;html=1;fontSize=19;strokeColor=#FF9933;" vertex="1" parent="1">
          <mxGeometry x="6" y="266" width="181" height="34" as="geometry" />
        </mxCell>
        <mxCell id="fYEtyLHJQhTUv1WF9Uro-192" value="avg_ttl" style="rounded=0;whiteSpace=wrap;html=1;fontSize=19;strokeColor=#FF9933;" vertex="1" parent="1">
          <mxGeometry x="6" y="300" width="181" height="34" as="geometry" />
        </mxCell>
        <mxCell id="fYEtyLHJQhTUv1WF9Uro-193" value="expires_cursor" style="rounded=0;whiteSpace=wrap;html=1;fontSize=19;strokeColor=#FF9933;" vertex="1" parent="1">
          <mxGeometry x="6" y="334" width="181" height="34" as="geometry" />
        </mxCell>
        <mxCell id="fYEtyLHJQhTUv1WF9Uro-194" value="defrag_later" style="rounded=0;whiteSpace=wrap;html=1;fontSize=19;strokeColor=#FF9933;" vertex="1" parent="1">
          <mxGeometry x="6" y="368" width="181" height="34" as="geometry" />
        </mxCell>
        <mxCell id="fYEtyLHJQhTUv1WF9Uro-195" value="type" style="rounded=0;whiteSpace=wrap;html=1;fontSize=19;strokeColor=#FF9933;" vertex="1" parent="1">
          <mxGeometry x="303" y="96" width="181" height="34" as="geometry" />
        </mxCell>
        <mxCell id="fYEtyLHJQhTUv1WF9Uro-196" value="privdata" style="rounded=0;whiteSpace=wrap;html=1;fontSize=19;strokeColor=#FF9933;" vertex="1" parent="1">
          <mxGeometry x="303" y="130" width="181" height="34" as="geometry" />
        </mxCell>
        <mxCell id="fYEtyLHJQhTUv1WF9Uro-197" style="edgeStyle=orthogonalEdgeStyle;curved=1;rounded=0;orthogonalLoop=1;jettySize=auto;html=1;exitX=1;exitY=0.5;exitDx=0;exitDy=0;entryX=0.1;entryY=0.5;entryDx=0;entryDy=0;entryPerimeter=0;fontSize=19;fontColor=#FF9933;" edge="1" parent="1" source="fYEtyLHJQhTUv1WF9Uro-199" target="fYEtyLHJQhTUv1WF9Uro-224">
          <mxGeometry relative="1" as="geometry">
            <Array as="points">
              <mxPoint x="503" y="181" />
              <mxPoint x="503" y="488" />
              <mxPoint x="484" y="488" />
              <mxPoint x="484" y="744" />
            </Array>
          </mxGeometry>
        </mxCell>
        <mxCell id="fYEtyLHJQhTUv1WF9Uro-198" style="rounded=0;orthogonalLoop=1;jettySize=auto;html=1;entryX=0;entryY=0.75;entryDx=0;entryDy=0;fontSize=26;fontColor=#FF8000;exitX=0.309;exitY=0.147;exitDx=0;exitDy=0;exitPerimeter=0;" edge="1" parent="1" source="fYEtyLHJQhTUv1WF9Uro-199" target="fYEtyLHJQhTUv1WF9Uro-202">
          <mxGeometry relative="1" as="geometry" />
        </mxCell>
        <mxCell id="fYEtyLHJQhTUv1WF9Uro-199" value="&lt;span style=&quot;font-size: 26px;&quot;&gt;dictht&amp;nbsp;&lt;/span&gt;ht[2]" style="rounded=0;whiteSpace=wrap;html=1;fontSize=26;strokeColor=#FF9933;fontStyle=1;fontColor=#FF8000;" vertex="1" parent="1">
          <mxGeometry x="303" y="164" width="181" height="34" as="geometry" />
        </mxCell>
        <mxCell id="fYEtyLHJQhTUv1WF9Uro-200" value="rehashidx" style="rounded=0;whiteSpace=wrap;html=1;fontSize=19;strokeColor=#FF9933;" vertex="1" parent="1">
          <mxGeometry x="303" y="198" width="181" height="34" as="geometry" />
        </mxCell>
        <mxCell id="fYEtyLHJQhTUv1WF9Uro-201" value="iterators" style="rounded=0;whiteSpace=wrap;html=1;fontSize=19;strokeColor=#FF9933;" vertex="1" parent="1">
          <mxGeometry x="303" y="232" width="181" height="34" as="geometry" />
        </mxCell>
        <mxCell id="fYEtyLHJQhTUv1WF9Uro-202" value="**table" style="rounded=0;whiteSpace=wrap;html=1;fontSize=26;fontStyle=1;fillColor=none;strokeColor=#FF9933;fontColor=#FF8000;" vertex="1" parent="1">
          <mxGeometry x="582" y="96" width="181" height="34" as="geometry" />
        </mxCell>
        <mxCell id="fYEtyLHJQhTUv1WF9Uro-203" value="size" style="rounded=0;whiteSpace=wrap;html=1;fontSize=19;strokeColor=#FF9933;" vertex="1" parent="1">
          <mxGeometry x="582" y="130" width="181" height="34" as="geometry" />
        </mxCell>
        <mxCell id="fYEtyLHJQhTUv1WF9Uro-204" value="sizemask" style="rounded=0;whiteSpace=wrap;html=1;fontSize=19;strokeColor=#FF9933;" vertex="1" parent="1">
          <mxGeometry x="582" y="164" width="181" height="34" as="geometry" />
        </mxCell>
        <mxCell id="fYEtyLHJQhTUv1WF9Uro-205" value="used" style="rounded=0;whiteSpace=wrap;html=1;fontSize=19;strokeColor=#FF9933;" vertex="1" parent="1">
          <mxGeometry x="582" y="198" width="181" height="34" as="geometry" />
        </mxCell>
        <mxCell id="fYEtyLHJQhTUv1WF9Uro-206" value="*key" style="rounded=0;whiteSpace=wrap;html=1;fontSize=26;fontStyle=1;fillColor=none;strokeColor=#FF9933;fontColor=#FF8000;" vertex="1" parent="1">
          <mxGeometry x="860" y="96" width="181" height="34" as="geometry" />
        </mxCell>
        <mxCell id="fYEtyLHJQhTUv1WF9Uro-207" value="v" style="rounded=0;whiteSpace=wrap;html=1;fontSize=19;strokeColor=#FF9933;" vertex="1" parent="1">
          <mxGeometry x="860" y="130" width="181" height="34" as="geometry" />
        </mxCell>
        <mxCell id="fYEtyLHJQhTUv1WF9Uro-208" value="*val" style="rounded=0;whiteSpace=wrap;html=1;fontSize=26;strokeColor=#FF9933;fontStyle=1;fontColor=#FF8000;" vertex="1" parent="1">
          <mxGeometry x="860" y="164" width="181" height="34" as="geometry" />
        </mxCell>
        <mxCell id="fYEtyLHJQhTUv1WF9Uro-209" value="u64" style="rounded=0;whiteSpace=wrap;html=1;fontSize=16;strokeColor=#FF9933;" vertex="1" parent="1">
          <mxGeometry x="860" y="198" width="181" height="34" as="geometry" />
        </mxCell>
        <mxCell id="fYEtyLHJQhTUv1WF9Uro-210" value="s64" style="rounded=0;whiteSpace=wrap;html=1;fontSize=16;strokeColor=#FF9933;" vertex="1" parent="1">
          <mxGeometry x="860" y="232" width="181" height="34" as="geometry" />
        </mxCell>
        <mxCell id="fYEtyLHJQhTUv1WF9Uro-211" value="d" style="rounded=0;whiteSpace=wrap;html=1;fontSize=19;strokeColor=#FF9933;" vertex="1" parent="1">
          <mxGeometry x="860" y="266" width="181" height="34" as="geometry" />
        </mxCell>
        <mxCell id="fYEtyLHJQhTUv1WF9Uro-212" value="*next" style="rounded=0;whiteSpace=wrap;html=1;fontSize=26;strokeColor=#FF9933;fontStyle=1;fontColor=#FF8000;" vertex="1" parent="1">
          <mxGeometry x="860" y="298" width="181" height="34" as="geometry" />
        </mxCell>
        <mxCell id="fYEtyLHJQhTUv1WF9Uro-213" value="type" style="rounded=0;whiteSpace=wrap;html=1;fontSize=26;fontStyle=1;fillColor=none;strokeColor=#FF9933;fontColor=#FF8000;" vertex="1" parent="1">
          <mxGeometry x="1167" y="96" width="181" height="34" as="geometry" />
        </mxCell>
        <mxCell id="fYEtyLHJQhTUv1WF9Uro-214" value="encoding" style="rounded=0;whiteSpace=wrap;html=1;fontSize=26;strokeColor=#FF9933;fontStyle=1;fontColor=#FF8000;" vertex="1" parent="1">
          <mxGeometry x="1167" y="130" width="181" height="34" as="geometry" />
        </mxCell>
        <mxCell id="fYEtyLHJQhTUv1WF9Uro-215" value="lru:LRU_BITS" style="rounded=0;whiteSpace=wrap;html=1;fontSize=19;strokeColor=#FF9933;" vertex="1" parent="1">
          <mxGeometry x="1167" y="164" width="181" height="34" as="geometry" />
        </mxCell>
        <mxCell id="fYEtyLHJQhTUv1WF9Uro-216" value="refcount" style="rounded=0;whiteSpace=wrap;html=1;fontSize=19;strokeColor=#FF9933;" vertex="1" parent="1">
          <mxGeometry x="1167" y="198" width="181" height="34" as="geometry" />
        </mxCell>
        <mxCell id="fYEtyLHJQhTUv1WF9Uro-217" value="*ptr" style="rounded=0;whiteSpace=wrap;html=1;fontSize=26;strokeColor=#FF9933;fontStyle=1;fontColor=#FF8000;" vertex="1" parent="1">
          <mxGeometry x="1167" y="232" width="181" height="34" as="geometry" />
        </mxCell>
        <mxCell id="fYEtyLHJQhTUv1WF9Uro-218" value="RedisDb" style="text;html=1;align=center;verticalAlign=middle;resizable=0;points=[];autosize=1;fontSize=21;fontColor=#FF8000;" vertex="1" parent="1">
          <mxGeometry x="2" y="43" width="91" height="29" as="geometry" />
        </mxCell>
        <mxCell id="fYEtyLHJQhTUv1WF9Uro-219" value="dict" style="text;html=1;align=center;verticalAlign=middle;resizable=0;points=[];autosize=1;fontSize=21;fontColor=#FF8000;" vertex="1" parent="1">
          <mxGeometry x="304" y="43" width="43" height="29" as="geometry" />
        </mxCell>
        <mxCell id="fYEtyLHJQhTUv1WF9Uro-220" value="dictht" style="text;html=1;align=center;verticalAlign=middle;resizable=0;points=[];autosize=1;fontSize=21;fontColor=#FF8000;" vertex="1" parent="1">
          <mxGeometry x="576.5" y="43" width="60" height="29" as="geometry" />
        </mxCell>
        <mxCell id="fYEtyLHJQhTUv1WF9Uro-221" value="dictEntry" style="text;html=1;align=center;verticalAlign=middle;resizable=0;points=[];autosize=1;fontSize=21;fontColor=#FF8000;" vertex="1" parent="1">
          <mxGeometry x="853" y="43" width="92" height="29" as="geometry" />
        </mxCell>
        <mxCell id="fYEtyLHJQhTUv1WF9Uro-222" value="redisObject" style="text;html=1;align=center;verticalAlign=middle;resizable=0;points=[];autosize=1;fontSize=21;fontColor=#FF8000;" vertex="1" parent="1">
          <mxGeometry x="1156" y="43" width="116" height="29" as="geometry" />
        </mxCell>
        <mxCell id="fYEtyLHJQhTUv1WF9Uro-223" value="" style="shape=curlyBracket;whiteSpace=wrap;html=1;rounded=1;strokeColor=#b85450;fillColor=#f8cecc;fontSize=19;" vertex="1" parent="1">
          <mxGeometry x="278" y="97" width="20" height="169" as="geometry" />
        </mxCell>
        <mxCell id="fYEtyLHJQhTUv1WF9Uro-224" value="" style="shape=curlyBracket;whiteSpace=wrap;html=1;rounded=1;strokeColor=#b85450;fillColor=#f8cecc;fontSize=19;" vertex="1" parent="1">
          <mxGeometry x="514" y="623.5" width="20" height="241" as="geometry" />
        </mxCell>
        <mxCell id="fYEtyLHJQhTUv1WF9Uro-225" style="edgeStyle=orthogonalEdgeStyle;curved=1;rounded=0;orthogonalLoop=1;jettySize=auto;html=1;exitX=1;exitY=0.5;exitDx=0;exitDy=0;entryX=0.45;entryY=0.511;entryDx=0;entryDy=0;entryPerimeter=0;fontSize=19;fontColor=#FF9933;fillColor=#fff2cc;strokeColor=#d6b656;strokeWidth=5;" edge="1" parent="1" source="fYEtyLHJQhTUv1WF9Uro-228" target="fYEtyLHJQhTUv1WF9Uro-242">
          <mxGeometry relative="1" as="geometry">
            <Array as="points">
              <mxPoint x="748" y="742" />
            </Array>
          </mxGeometry>
        </mxCell>
        <mxCell id="fYEtyLHJQhTUv1WF9Uro-226" value="0" style="rounded=0;whiteSpace=wrap;html=1;strokeColor=#FF9933;fillColor=none;fontSize=19;fontColor=#FF9933;" vertex="1" parent="1">
          <mxGeometry x="628" y="588.5" width="126" height="46" as="geometry" />
        </mxCell>
        <mxCell id="fYEtyLHJQhTUv1WF9Uro-227" value="1" style="rounded=0;whiteSpace=wrap;html=1;strokeColor=#FF9933;fillColor=none;fontSize=19;fontColor=#FF9933;" vertex="1" parent="1">
          <mxGeometry x="628" y="634.5" width="126" height="46" as="geometry" />
        </mxCell>
        <mxCell id="fYEtyLHJQhTUv1WF9Uro-228" value="2" style="rounded=0;whiteSpace=wrap;html=1;strokeColor=#FF9933;fillColor=none;fontSize=19;fontColor=#FF9933;" vertex="1" parent="1">
          <mxGeometry x="628" y="680.5" width="126" height="46" as="geometry" />
        </mxCell>
        <mxCell id="fYEtyLHJQhTUv1WF9Uro-229" style="edgeStyle=orthogonalEdgeStyle;curved=1;rounded=0;orthogonalLoop=1;jettySize=auto;html=1;exitX=1;exitY=0.5;exitDx=0;exitDy=0;entryX=0.1;entryY=0.5;entryDx=0;entryDy=0;entryPerimeter=0;fontSize=19;fontColor=#FF9933;fillColor=#fff2cc;strokeColor=#d6b656;strokeWidth=5;" edge="1" parent="1" source="fYEtyLHJQhTUv1WF9Uro-230" target="fYEtyLHJQhTUv1WF9Uro-266">
          <mxGeometry relative="1" as="geometry">
            <Array as="points">
              <mxPoint x="783" y="772" />
              <mxPoint x="783" y="1028" />
              <mxPoint x="758" y="1028" />
              <mxPoint x="758" y="1183" />
            </Array>
          </mxGeometry>
        </mxCell>
        <mxCell id="fYEtyLHJQhTUv1WF9Uro-230" value="3" style="rounded=0;whiteSpace=wrap;html=1;strokeColor=#FF9933;fillColor=none;fontSize=19;fontColor=#FF9933;" vertex="1" parent="1">
          <mxGeometry x="628" y="726.5" width="126" height="46" as="geometry" />
        </mxCell>
        <mxCell id="fYEtyLHJQhTUv1WF9Uro-231" style="edgeStyle=orthogonalEdgeStyle;curved=1;rounded=0;orthogonalLoop=1;jettySize=auto;html=1;exitX=1;exitY=0.5;exitDx=0;exitDy=0;entryX=0.1;entryY=0.5;entryDx=0;entryDy=0;fontSize=19;fontColor=#FF9933;entryPerimeter=0;" edge="1" parent="1" source="fYEtyLHJQhTUv1WF9Uro-232" target="fYEtyLHJQhTUv1WF9Uro-283">
          <mxGeometry relative="1" as="geometry">
            <Array as="points">
              <mxPoint x="1138" y="641" />
              <mxPoint x="1138" y="565" />
              <mxPoint x="1081" y="565" />
              <mxPoint x="1081" y="425" />
            </Array>
            <mxPoint x="1087" y="533.5" as="targetPoint" />
          </mxGeometry>
        </mxCell>
        <mxCell id="fYEtyLHJQhTUv1WF9Uro-232" value="*key" style="rounded=0;whiteSpace=wrap;html=1;fontSize=26;fontStyle=1;fillColor=none;strokeColor=#FF9933;fontColor=#FF8000;" vertex="1" parent="1">
          <mxGeometry x="948" y="623.5" width="181" height="34" as="geometry" />
        </mxCell>
        <mxCell id="fYEtyLHJQhTUv1WF9Uro-233" value="v" style="rounded=0;whiteSpace=wrap;html=1;fontSize=19;strokeColor=#FF9933;" vertex="1" parent="1">
          <mxGeometry x="948" y="657.5" width="181" height="34" as="geometry" />
        </mxCell>
        <mxCell id="fYEtyLHJQhTUv1WF9Uro-234" style="edgeStyle=orthogonalEdgeStyle;curved=1;rounded=0;orthogonalLoop=1;jettySize=auto;html=1;exitX=1;exitY=0.5;exitDx=0;exitDy=0;entryX=0.1;entryY=0.5;entryDx=0;entryDy=0;entryPerimeter=0;fontSize=19;fontColor=#FF8000;" edge="1" parent="1" source="fYEtyLHJQhTUv1WF9Uro-235" target="fYEtyLHJQhTUv1WF9Uro-301">
          <mxGeometry relative="1" as="geometry">
            <Array as="points">
              <mxPoint x="1146" y="709" />
              <mxPoint x="1146" y="1046" />
            </Array>
          </mxGeometry>
        </mxCell>
        <mxCell id="fYEtyLHJQhTUv1WF9Uro-235" value="*val" style="rounded=0;whiteSpace=wrap;html=1;fontSize=26;strokeColor=#FF9933;fontStyle=1;fontColor=#FF8000;" vertex="1" parent="1">
          <mxGeometry x="948" y="691.5" width="181" height="34" as="geometry" />
        </mxCell>
        <mxCell id="fYEtyLHJQhTUv1WF9Uro-236" value="u64" style="rounded=0;whiteSpace=wrap;html=1;fontSize=16;strokeColor=#FF9933;" vertex="1" parent="1">
          <mxGeometry x="948" y="725.5" width="181" height="34" as="geometry" />
        </mxCell>
        <mxCell id="fYEtyLHJQhTUv1WF9Uro-237" value="s64" style="rounded=0;whiteSpace=wrap;html=1;fontSize=16;strokeColor=#FF9933;" vertex="1" parent="1">
          <mxGeometry x="948" y="759.5" width="181" height="34" as="geometry" />
        </mxCell>
        <mxCell id="fYEtyLHJQhTUv1WF9Uro-238" value="d" style="rounded=0;whiteSpace=wrap;html=1;fontSize=19;strokeColor=#FF9933;" vertex="1" parent="1">
          <mxGeometry x="948" y="793.5" width="181" height="34" as="geometry" />
        </mxCell>
        <mxCell id="fYEtyLHJQhTUv1WF9Uro-239" style="edgeStyle=orthogonalEdgeStyle;curved=1;rounded=0;orthogonalLoop=1;jettySize=auto;html=1;exitX=1;exitY=0.5;exitDx=0;exitDy=0;fontSize=19;fontColor=#FF8000;fillColor=#fff2cc;strokeColor=#d6b656;strokeWidth=5;" edge="1" parent="1" source="fYEtyLHJQhTUv1WF9Uro-240" target="fYEtyLHJQhTUv1WF9Uro-254">
          <mxGeometry relative="1" as="geometry" />
        </mxCell>
        <mxCell id="fYEtyLHJQhTUv1WF9Uro-240" value="*next" style="rounded=0;whiteSpace=wrap;html=1;fontSize=26;strokeColor=#FF9933;fontStyle=1;fontColor=#FF8000;" vertex="1" parent="1">
          <mxGeometry x="948" y="825.5" width="181" height="34" as="geometry" />
        </mxCell>
        <mxCell id="fYEtyLHJQhTUv1WF9Uro-241" value="dictEntry" style="text;html=1;align=center;verticalAlign=middle;resizable=0;points=[];autosize=1;fontSize=19;fontColor=#FF9933;" vertex="1" parent="1">
          <mxGeometry x="941" y="585" width="84" height="27" as="geometry" />
        </mxCell>
        <mxCell id="fYEtyLHJQhTUv1WF9Uro-242" value="" style="shape=curlyBracket;whiteSpace=wrap;html=1;rounded=1;strokeColor=#b85450;fillColor=#f8cecc;fontSize=19;" vertex="1" parent="1">
          <mxGeometry x="925" y="621.5" width="20" height="235" as="geometry" />
        </mxCell>
        <mxCell id="fYEtyLHJQhTUv1WF9Uro-243" style="edgeStyle=orthogonalEdgeStyle;curved=1;rounded=0;orthogonalLoop=1;jettySize=auto;html=1;exitX=1;exitY=0.5;exitDx=0;exitDy=0;fontSize=19;fontColor=#FF9933;" edge="1" parent="1" source="fYEtyLHJQhTUv1WF9Uro-244" target="fYEtyLHJQhTUv1WF9Uro-284">
          <mxGeometry relative="1" as="geometry">
            <mxPoint x="1577" y="594" as="targetPoint" />
            <Array as="points">
              <mxPoint x="1458" y="644" />
              <mxPoint x="1458" y="424" />
            </Array>
          </mxGeometry>
        </mxCell>
        <mxCell id="fYEtyLHJQhTUv1WF9Uro-244" value="*key" style="rounded=0;whiteSpace=wrap;html=1;fontSize=26;fontStyle=1;fillColor=none;strokeColor=#FF9933;fontColor=#FF8000;" vertex="1" parent="1">
          <mxGeometry x="1216" y="627" width="181" height="34" as="geometry" />
        </mxCell>
        <mxCell id="fYEtyLHJQhTUv1WF9Uro-245" value="v" style="rounded=0;whiteSpace=wrap;html=1;fontSize=19;strokeColor=#FF9933;" vertex="1" parent="1">
          <mxGeometry x="1216" y="661" width="181" height="34" as="geometry" />
        </mxCell>
        <mxCell id="fYEtyLHJQhTUv1WF9Uro-246" style="edgeStyle=orthogonalEdgeStyle;curved=1;rounded=0;orthogonalLoop=1;jettySize=auto;html=1;exitX=1;exitY=0.25;exitDx=0;exitDy=0;entryX=0.1;entryY=0.5;entryDx=0;entryDy=0;entryPerimeter=0;fontSize=19;fontColor=#FF8000;" edge="1" parent="1" source="fYEtyLHJQhTUv1WF9Uro-247" target="fYEtyLHJQhTUv1WF9Uro-302">
          <mxGeometry relative="1" as="geometry">
            <Array as="points">
              <mxPoint x="1442" y="704" />
              <mxPoint x="1442" y="1044" />
            </Array>
          </mxGeometry>
        </mxCell>
        <mxCell id="fYEtyLHJQhTUv1WF9Uro-247" value="*val" style="rounded=0;whiteSpace=wrap;html=1;fontSize=26;strokeColor=#FF9933;fontStyle=1;fontColor=#FF8000;" vertex="1" parent="1">
          <mxGeometry x="1216" y="695" width="181" height="34" as="geometry" />
        </mxCell>
        <mxCell id="fYEtyLHJQhTUv1WF9Uro-248" value="u64" style="rounded=0;whiteSpace=wrap;html=1;fontSize=16;strokeColor=#FF9933;" vertex="1" parent="1">
          <mxGeometry x="1216" y="729" width="181" height="34" as="geometry" />
        </mxCell>
        <mxCell id="fYEtyLHJQhTUv1WF9Uro-249" value="s64" style="rounded=0;whiteSpace=wrap;html=1;fontSize=16;strokeColor=#FF9933;" vertex="1" parent="1">
          <mxGeometry x="1216" y="763" width="181" height="34" as="geometry" />
        </mxCell>
        <mxCell id="fYEtyLHJQhTUv1WF9Uro-250" value="d" style="rounded=0;whiteSpace=wrap;html=1;fontSize=19;strokeColor=#FF9933;" vertex="1" parent="1">
          <mxGeometry x="1216" y="797" width="181" height="34" as="geometry" />
        </mxCell>
        <mxCell id="fYEtyLHJQhTUv1WF9Uro-251" style="rounded=0;orthogonalLoop=1;jettySize=auto;html=1;exitX=1;exitY=0.5;exitDx=0;exitDy=0;fontSize=19;fontColor=#FF8000;" edge="1" parent="1" source="fYEtyLHJQhTUv1WF9Uro-252">
          <mxGeometry relative="1" as="geometry">
            <mxPoint x="1456" y="863" as="targetPoint" />
          </mxGeometry>
        </mxCell>
        <mxCell id="fYEtyLHJQhTUv1WF9Uro-252" value="*next" style="rounded=0;whiteSpace=wrap;html=1;fontSize=26;strokeColor=#FF9933;fontStyle=1;fontColor=#FF8000;" vertex="1" parent="1">
          <mxGeometry x="1216" y="829" width="181" height="34" as="geometry" />
        </mxCell>
        <mxCell id="fYEtyLHJQhTUv1WF9Uro-253" value="dictEntry" style="text;html=1;align=center;verticalAlign=middle;resizable=0;points=[];autosize=1;fontSize=19;fontColor=#FF9933;" vertex="1" parent="1">
          <mxGeometry x="1209" y="588.5" width="84" height="27" as="geometry" />
        </mxCell>
        <mxCell id="fYEtyLHJQhTUv1WF9Uro-254" value="" style="shape=curlyBracket;whiteSpace=wrap;html=1;rounded=1;strokeColor=#b85450;fillColor=#f8cecc;fontSize=19;" vertex="1" parent="1">
          <mxGeometry x="1193" y="625" width="20" height="235" as="geometry" />
        </mxCell>
        <mxCell id="fYEtyLHJQhTUv1WF9Uro-255" style="edgeStyle=orthogonalEdgeStyle;curved=1;rounded=0;orthogonalLoop=1;jettySize=auto;html=1;exitX=1;exitY=0.75;exitDx=0;exitDy=0;entryX=0.1;entryY=0.5;entryDx=0;entryDy=0;entryPerimeter=0;strokeWidth=5;fontSize=26;fontColor=#FF8000;fillColor=#fff2cc;strokeColor=#d6b656;" edge="1" parent="1" source="fYEtyLHJQhTUv1WF9Uro-256" target="fYEtyLHJQhTUv1WF9Uro-310">
          <mxGeometry relative="1" as="geometry">
            <Array as="points">
              <mxPoint x="1119" y="1093" />
              <mxPoint x="1119" y="1221" />
            </Array>
          </mxGeometry>
        </mxCell>
        <mxCell id="fYEtyLHJQhTUv1WF9Uro-256" value="*key" style="rounded=0;whiteSpace=wrap;html=1;fontSize=26;fontStyle=1;fillColor=none;strokeColor=#FF9933;fontColor=#FF8000;" vertex="1" parent="1">
          <mxGeometry x="834" y="1067.5" width="181" height="34" as="geometry" />
        </mxCell>
        <mxCell id="fYEtyLHJQhTUv1WF9Uro-257" value="v" style="rounded=0;whiteSpace=wrap;html=1;fontSize=19;strokeColor=#FF9933;" vertex="1" parent="1">
          <mxGeometry x="834" y="1101.5" width="181" height="34" as="geometry" />
        </mxCell>
        <mxCell id="fYEtyLHJQhTUv1WF9Uro-258" style="edgeStyle=orthogonalEdgeStyle;rounded=0;orthogonalLoop=1;jettySize=auto;html=1;exitX=1;exitY=0.5;exitDx=0;exitDy=0;curved=1;fillColor=#ffe6cc;strokeColor=#d79b00;strokeWidth=2;entryX=0.1;entryY=0.5;entryDx=0;entryDy=0;entryPerimeter=0;" edge="1" parent="1" source="fYEtyLHJQhTUv1WF9Uro-259" target="fYEtyLHJQhTUv1WF9Uro-349">
          <mxGeometry relative="1" as="geometry">
            <mxPoint x="1250" y="1566" as="targetPoint" />
            <Array as="points">
              <mxPoint x="1039" y="1153" />
              <mxPoint x="1039" y="1513" />
            </Array>
          </mxGeometry>
        </mxCell>
        <mxCell id="fYEtyLHJQhTUv1WF9Uro-259" value="*val" style="rounded=0;whiteSpace=wrap;html=1;fontSize=26;strokeColor=#FF9933;fontStyle=1;fontColor=#FF8000;" vertex="1" parent="1">
          <mxGeometry x="834" y="1135.5" width="181" height="34" as="geometry" />
        </mxCell>
        <mxCell id="fYEtyLHJQhTUv1WF9Uro-260" value="u64" style="rounded=0;whiteSpace=wrap;html=1;fontSize=16;strokeColor=#FF9933;" vertex="1" parent="1">
          <mxGeometry x="834" y="1169.5" width="181" height="34" as="geometry" />
        </mxCell>
        <mxCell id="fYEtyLHJQhTUv1WF9Uro-261" value="s64" style="rounded=0;whiteSpace=wrap;html=1;fontSize=16;strokeColor=#FF9933;" vertex="1" parent="1">
          <mxGeometry x="834" y="1203.5" width="181" height="34" as="geometry" />
        </mxCell>
        <mxCell id="fYEtyLHJQhTUv1WF9Uro-262" value="d" style="rounded=0;whiteSpace=wrap;html=1;fontSize=19;strokeColor=#FF9933;" vertex="1" parent="1">
          <mxGeometry x="834" y="1237.5" width="181" height="34" as="geometry" />
        </mxCell>
        <mxCell id="fYEtyLHJQhTUv1WF9Uro-263" style="edgeStyle=none;rounded=0;orthogonalLoop=1;jettySize=auto;html=1;exitX=1;exitY=0.5;exitDx=0;exitDy=0;fontSize=26;fontColor=#FF8000;" edge="1" parent="1" source="fYEtyLHJQhTUv1WF9Uro-264">
          <mxGeometry relative="1" as="geometry">
            <mxPoint x="1048" y="1293" as="targetPoint" />
          </mxGeometry>
        </mxCell>
        <mxCell id="fYEtyLHJQhTUv1WF9Uro-264" value="*next" style="rounded=0;whiteSpace=wrap;html=1;fontSize=26;strokeColor=#FF9933;fontStyle=1;fontColor=#FF8000;" vertex="1" parent="1">
          <mxGeometry x="834" y="1269.5" width="181" height="34" as="geometry" />
        </mxCell>
        <mxCell id="fYEtyLHJQhTUv1WF9Uro-265" value="dictEntry" style="text;html=1;align=center;verticalAlign=middle;resizable=0;points=[];autosize=1;fontSize=19;fontColor=#FF9933;" vertex="1" parent="1">
          <mxGeometry x="827" y="1029" width="84" height="27" as="geometry" />
        </mxCell>
        <mxCell id="fYEtyLHJQhTUv1WF9Uro-266" value="" style="shape=curlyBracket;whiteSpace=wrap;html=1;rounded=1;strokeColor=#b85450;fillColor=#f8cecc;fontSize=19;" vertex="1" parent="1">
          <mxGeometry x="811" y="1065.5" width="20" height="235" as="geometry" />
        </mxCell>
        <mxCell id="fYEtyLHJQhTUv1WF9Uro-267" value="&lt;span style=&quot;font-size: 26px ; font-weight: 700&quot;&gt;ht[0]&lt;/span&gt;" style="text;html=1;align=center;verticalAlign=middle;resizable=0;points=[];autosize=1;fontSize=19;fontColor=#FF9933;" vertex="1" parent="1">
          <mxGeometry x="557" y="588.5" width="66" height="29" as="geometry" />
        </mxCell>
        <mxCell id="fYEtyLHJQhTUv1WF9Uro-268" value="" style="edgeStyle=orthogonalEdgeStyle;curved=1;rounded=0;orthogonalLoop=1;jettySize=auto;html=1;fontSize=19;fontColor=#FF9933;" edge="1" parent="1" source="fYEtyLHJQhTUv1WF9Uro-269" target="fYEtyLHJQhTUv1WF9Uro-270">
          <mxGeometry relative="1" as="geometry" />
        </mxCell>
        <mxCell id="fYEtyLHJQhTUv1WF9Uro-269" value="&lt;span style=&quot;font-size: 26px ; font-weight: 700&quot;&gt;ht[1]&lt;/span&gt;" style="text;html=1;align=center;verticalAlign=middle;resizable=0;points=[];autosize=1;fontSize=19;fontColor=#FF9933;" vertex="1" parent="1">
          <mxGeometry x="550.5" y="845.5" width="66" height="29" as="geometry" />
        </mxCell>
        <mxCell id="fYEtyLHJQhTUv1WF9Uro-270" value="&lt;span style=&quot;font-size: 26px ; font-weight: 700&quot;&gt;NULL&lt;/span&gt;" style="text;html=1;align=center;verticalAlign=middle;resizable=0;points=[];autosize=1;fontSize=19;fontColor=#FF9933;" vertex="1" parent="1">
          <mxGeometry x="633.5" y="845.5" width="79" height="29" as="geometry" />
        </mxCell>
        <mxCell id="fYEtyLHJQhTUv1WF9Uro-271" value="len" style="rounded=0;whiteSpace=wrap;html=1;fontSize=19;fontStyle=1;fillColor=none;strokeColor=#FF9933;fontColor=#FF8000;strokeWidth=1;" vertex="1" parent="1">
          <mxGeometry x="1452" y="96" width="181" height="34" as="geometry" />
        </mxCell>
        <mxCell id="fYEtyLHJQhTUv1WF9Uro-272" value="free" style="rounded=0;whiteSpace=wrap;html=1;fontSize=19;strokeColor=#FF9933;fontStyle=1;fontColor=#FF8000;strokeWidth=1;" vertex="1" parent="1">
          <mxGeometry x="1452" y="130" width="181" height="34" as="geometry" />
        </mxCell>
        <mxCell id="fYEtyLHJQhTUv1WF9Uro-273" value="buf[]" style="rounded=0;whiteSpace=wrap;html=1;fontSize=19;strokeColor=#FF9933;fontColor=#FF8000;strokeWidth=1;" vertex="1" parent="1">
          <mxGeometry x="1452" y="164" width="181" height="34" as="geometry" />
        </mxCell>
        <mxCell id="fYEtyLHJQhTUv1WF9Uro-274" value="sds" style="text;html=1;align=center;verticalAlign=middle;resizable=0;points=[];autosize=1;fontSize=21;fontColor=#FF8000;" vertex="1" parent="1">
          <mxGeometry x="1448" y="43" width="43" height="29" as="geometry" />
        </mxCell>
        <mxCell id="fYEtyLHJQhTUv1WF9Uro-275" value="len" style="rounded=0;whiteSpace=wrap;html=1;fontSize=19;fontStyle=1;fillColor=none;strokeColor=#FF9933;fontColor=#FF8000;strokeWidth=1;" vertex="1" parent="1">
          <mxGeometry x="1129.5" y="372.5" width="181" height="34" as="geometry" />
        </mxCell>
        <mxCell id="fYEtyLHJQhTUv1WF9Uro-276" value="free" style="rounded=0;whiteSpace=wrap;html=1;fontSize=19;strokeColor=#FF9933;fontStyle=1;fontColor=#FF8000;strokeWidth=1;" vertex="1" parent="1">
          <mxGeometry x="1129.5" y="406.5" width="181" height="34" as="geometry" />
        </mxCell>
        <mxCell id="fYEtyLHJQhTUv1WF9Uro-277" value="buf[]: some-key2" style="rounded=0;whiteSpace=wrap;html=1;fontSize=19;strokeColor=#FF9933;fontColor=#FF8000;strokeWidth=1;" vertex="1" parent="1">
          <mxGeometry x="1129.5" y="440.5" width="181" height="34" as="geometry" />
        </mxCell>
        <mxCell id="fYEtyLHJQhTUv1WF9Uro-278" value="sds" style="text;html=1;align=center;verticalAlign=middle;resizable=0;points=[];autosize=1;fontSize=19;fontColor=#FF9933;" vertex="1" parent="1">
          <mxGeometry x="1129.5" y="342" width="40" height="27" as="geometry" />
        </mxCell>
        <mxCell id="fYEtyLHJQhTUv1WF9Uro-279" value="len" style="rounded=0;whiteSpace=wrap;html=1;fontSize=19;fontStyle=1;fillColor=none;strokeColor=#FF9933;fontColor=#FF8000;strokeWidth=1;" vertex="1" parent="1">
          <mxGeometry x="1513" y="372.5" width="181" height="34" as="geometry" />
        </mxCell>
        <mxCell id="fYEtyLHJQhTUv1WF9Uro-280" value="free" style="rounded=0;whiteSpace=wrap;html=1;fontSize=19;strokeColor=#FF9933;fontStyle=1;fontColor=#FF8000;strokeWidth=1;" vertex="1" parent="1">
          <mxGeometry x="1513" y="406.5" width="181" height="34" as="geometry" />
        </mxCell>
        <mxCell id="fYEtyLHJQhTUv1WF9Uro-281" value="buf[]:: some-key1" style="rounded=0;whiteSpace=wrap;html=1;fontSize=19;strokeColor=#FF9933;fontColor=#FF8000;strokeWidth=1;" vertex="1" parent="1">
          <mxGeometry x="1513" y="440.5" width="181" height="34" as="geometry" />
        </mxCell>
        <mxCell id="fYEtyLHJQhTUv1WF9Uro-282" value="sds" style="text;html=1;align=center;verticalAlign=middle;resizable=0;points=[];autosize=1;fontSize=19;fontColor=#FF9933;" vertex="1" parent="1">
          <mxGeometry x="1509" y="345.5" width="40" height="27" as="geometry" />
        </mxCell>
        <mxCell id="fYEtyLHJQhTUv1WF9Uro-283" value="" style="shape=curlyBracket;whiteSpace=wrap;html=1;rounded=1;strokeColor=#b85450;fillColor=#f8cecc;fontSize=19;" vertex="1" parent="1">
          <mxGeometry x="1111.5" y="375.5" width="20" height="98.5" as="geometry" />
        </mxCell>
        <mxCell id="fYEtyLHJQhTUv1WF9Uro-284" value="" style="shape=curlyBracket;whiteSpace=wrap;html=1;rounded=1;strokeColor=#b85450;fillColor=#f8cecc;fontSize=19;" vertex="1" parent="1">
          <mxGeometry x="1489" y="374.25" width="20" height="98.5" as="geometry" />
        </mxCell>
        <mxCell id="fYEtyLHJQhTUv1WF9Uro-285" value="type" style="rounded=0;whiteSpace=wrap;html=1;fontSize=26;fontStyle=1;fillColor=none;strokeColor=#FF9933;fontColor=#FF8000;" vertex="1" parent="1">
          <mxGeometry x="1193" y="959" width="181" height="34" as="geometry" />
        </mxCell>
        <mxCell id="fYEtyLHJQhTUv1WF9Uro-286" value="encoding" style="rounded=0;whiteSpace=wrap;html=1;fontSize=26;strokeColor=#FF9933;fontStyle=1;fontColor=#FF8000;" vertex="1" parent="1">
          <mxGeometry x="1193" y="993" width="181" height="34" as="geometry" />
        </mxCell>
        <mxCell id="fYEtyLHJQhTUv1WF9Uro-287" value="lru:LRU_BITS" style="rounded=0;whiteSpace=wrap;html=1;fontSize=19;strokeColor=#FF9933;" vertex="1" parent="1">
          <mxGeometry x="1193" y="1027" width="181" height="34" as="geometry" />
        </mxCell>
        <mxCell id="fYEtyLHJQhTUv1WF9Uro-288" value="refcount" style="rounded=0;whiteSpace=wrap;html=1;fontSize=19;strokeColor=#FF9933;" vertex="1" parent="1">
          <mxGeometry x="1193" y="1061" width="181" height="34" as="geometry" />
        </mxCell>
        <mxCell id="fYEtyLHJQhTUv1WF9Uro-289" style="edgeStyle=orthogonalEdgeStyle;curved=1;rounded=0;orthogonalLoop=1;jettySize=auto;html=1;exitX=1;exitY=0.5;exitDx=0;exitDy=0;strokeWidth=2;" edge="1" parent="1" source="fYEtyLHJQhTUv1WF9Uro-290">
          <mxGeometry relative="1" as="geometry">
            <mxPoint x="1452" y="1146" as="targetPoint" />
          </mxGeometry>
        </mxCell>
        <mxCell id="fYEtyLHJQhTUv1WF9Uro-290" value="*ptr" style="rounded=0;whiteSpace=wrap;html=1;fontSize=26;strokeColor=#FF9933;fontStyle=1;fontColor=#FF8000;" vertex="1" parent="1">
          <mxGeometry x="1193" y="1095" width="181" height="34" as="geometry" />
        </mxCell>
        <mxCell id="fYEtyLHJQhTUv1WF9Uro-291" value="redisObject" style="text;html=1;align=center;verticalAlign=middle;resizable=0;points=[];autosize=1;fontSize=26;fontColor=#FF9933;fontStyle=1" vertex="1" parent="1">
          <mxGeometry x="1173" y="911" width="153" height="35" as="geometry" />
        </mxCell>
        <mxCell id="fYEtyLHJQhTUv1WF9Uro-292" value="NULL" style="text;html=1;align=center;verticalAlign=middle;resizable=0;points=[];autosize=1;fontSize=19;fontColor=#FF8000;" vertex="1" parent="1">
          <mxGeometry x="1459" y="850" width="59" height="27" as="geometry" />
        </mxCell>
        <mxCell id="fYEtyLHJQhTUv1WF9Uro-293" style="edgeStyle=none;rounded=0;orthogonalLoop=1;jettySize=auto;html=1;exitX=0.5;exitY=0;exitDx=0;exitDy=0;strokeWidth=1;fontSize=28;fontColor=#FF8000;" edge="1" parent="1" source="fYEtyLHJQhTUv1WF9Uro-294" target="fYEtyLHJQhTUv1WF9Uro-341">
          <mxGeometry relative="1" as="geometry" />
        </mxCell>
        <mxCell id="fYEtyLHJQhTUv1WF9Uro-294" value="type" style="rounded=0;whiteSpace=wrap;html=1;fontSize=26;fontStyle=1;fillColor=none;strokeColor=#FF9933;fontColor=#FF8000;" vertex="1" parent="1">
          <mxGeometry x="1595" y="964.75" width="181" height="34" as="geometry" />
        </mxCell>
        <mxCell id="fYEtyLHJQhTUv1WF9Uro-295" style="edgeStyle=none;rounded=0;orthogonalLoop=1;jettySize=auto;html=1;exitX=1;exitY=0.5;exitDx=0;exitDy=0;entryX=0;entryY=0.75;entryDx=0;entryDy=0;strokeWidth=1;fontSize=28;fontColor=#FF8000;" edge="1" parent="1" source="fYEtyLHJQhTUv1WF9Uro-296" target="fYEtyLHJQhTUv1WF9Uro-342">
          <mxGeometry relative="1" as="geometry">
            <mxPoint x="1913.88" y="945.06" as="targetPoint" />
          </mxGeometry>
        </mxCell>
        <mxCell id="fYEtyLHJQhTUv1WF9Uro-296" value="encoding" style="rounded=0;whiteSpace=wrap;html=1;fontSize=26;strokeColor=#FF9933;fontStyle=1;fontColor=#FF8000;" vertex="1" parent="1">
          <mxGeometry x="1595" y="998.75" width="181" height="34" as="geometry" />
        </mxCell>
        <mxCell id="fYEtyLHJQhTUv1WF9Uro-297" value="lru:LRU_BITS" style="rounded=0;whiteSpace=wrap;html=1;fontSize=19;strokeColor=#FF9933;" vertex="1" parent="1">
          <mxGeometry x="1595" y="1032.75" width="181" height="34" as="geometry" />
        </mxCell>
        <mxCell id="fYEtyLHJQhTUv1WF9Uro-298" value="refcount" style="rounded=0;whiteSpace=wrap;html=1;fontSize=19;strokeColor=#FF9933;" vertex="1" parent="1">
          <mxGeometry x="1595" y="1066.75" width="181" height="34" as="geometry" />
        </mxCell>
        <mxCell id="fYEtyLHJQhTUv1WF9Uro-299" style="edgeStyle=none;rounded=0;orthogonalLoop=1;jettySize=auto;html=1;exitX=1;exitY=0.5;exitDx=0;exitDy=0;entryX=0.1;entryY=0.5;entryDx=0;entryDy=0;entryPerimeter=0;" edge="1" parent="1" source="fYEtyLHJQhTUv1WF9Uro-300" target="fYEtyLHJQhTUv1WF9Uro-315">
          <mxGeometry relative="1" as="geometry" />
        </mxCell>
        <mxCell id="fYEtyLHJQhTUv1WF9Uro-300" value="*ptr" style="rounded=0;whiteSpace=wrap;html=1;fontSize=26;strokeColor=#FF9933;fontStyle=1;fontColor=#FF8000;" vertex="1" parent="1">
          <mxGeometry x="1595" y="1100.75" width="181" height="34" as="geometry" />
        </mxCell>
        <mxCell id="fYEtyLHJQhTUv1WF9Uro-301" value="" style="shape=curlyBracket;whiteSpace=wrap;html=1;rounded=1;strokeColor=#b85450;fillColor=#f8cecc;fontSize=19;" vertex="1" parent="1">
          <mxGeometry x="1173" y="960.5" width="20" height="171.5" as="geometry" />
        </mxCell>
        <mxCell id="fYEtyLHJQhTUv1WF9Uro-302" value="" style="shape=curlyBracket;whiteSpace=wrap;html=1;rounded=1;strokeColor=#b85450;fillColor=#f8cecc;fontSize=19;" vertex="1" parent="1">
          <mxGeometry x="1575" y="964" width="20" height="171.5" as="geometry" />
        </mxCell>
        <mxCell id="fYEtyLHJQhTUv1WF9Uro-303" value="" style="shape=curlyBracket;whiteSpace=wrap;html=1;rounded=1;strokeColor=#FF9933;fillColor=none;fontSize=19;fontColor=#FF8000;strokeWidth=3;" vertex="1" parent="1">
          <mxGeometry x="1445" y="1459" width="20" height="182" as="geometry" />
        </mxCell>
        <mxCell id="fYEtyLHJQhTUv1WF9Uro-304" value="不同数据类型所对应实际编码对象" style="text;html=1;align=center;verticalAlign=middle;resizable=0;points=[];autosize=1;fontSize=24;fontColor=#FF8000;" vertex="1" parent="1">
          <mxGeometry x="1483.5" y="1725" width="370" height="33" as="geometry" />
        </mxCell>
        <mxCell id="fYEtyLHJQhTUv1WF9Uro-305" value="&lt;font style=&quot;font-size: 19px&quot;&gt;NULL&lt;/font&gt;" style="text;html=1;align=center;verticalAlign=middle;resizable=0;points=[];autosize=1;fontSize=26;fontColor=#FF8000;" vertex="1" parent="1">
          <mxGeometry x="1044" y="1271.5" width="59" height="37" as="geometry" />
        </mxCell>
        <mxCell id="fYEtyLHJQhTUv1WF9Uro-306" value="len" style="rounded=0;whiteSpace=wrap;html=1;fontSize=19;fontStyle=1;fillColor=none;strokeColor=#FF9933;fontColor=#FF8000;strokeWidth=1;" vertex="1" parent="1">
          <mxGeometry x="1199" y="1169.5" width="181" height="34" as="geometry" />
        </mxCell>
        <mxCell id="fYEtyLHJQhTUv1WF9Uro-307" value="free" style="rounded=0;whiteSpace=wrap;html=1;fontSize=19;strokeColor=#FF9933;fontStyle=1;fontColor=#FF8000;strokeWidth=1;" vertex="1" parent="1">
          <mxGeometry x="1199" y="1203.5" width="181" height="34" as="geometry" />
        </mxCell>
        <mxCell id="fYEtyLHJQhTUv1WF9Uro-308" value="buf[]:: some-key3" style="rounded=0;whiteSpace=wrap;html=1;fontSize=19;strokeColor=#FF9933;fontColor=#FF8000;strokeWidth=1;" vertex="1" parent="1">
          <mxGeometry x="1199" y="1237.5" width="181" height="34" as="geometry" />
        </mxCell>
        <mxCell id="fYEtyLHJQhTUv1WF9Uro-309" value="sds" style="text;html=1;align=center;verticalAlign=middle;resizable=0;points=[];autosize=1;fontSize=19;fontColor=#FF9933;" vertex="1" parent="1">
          <mxGeometry x="1195" y="1142.5" width="40" height="27" as="geometry" />
        </mxCell>
        <mxCell id="fYEtyLHJQhTUv1WF9Uro-310" value="" style="shape=curlyBracket;whiteSpace=wrap;html=1;rounded=1;strokeColor=#b85450;fillColor=#f8cecc;fontSize=19;" vertex="1" parent="1">
          <mxGeometry x="1175" y="1171.25" width="20" height="98.5" as="geometry" />
        </mxCell>
        <mxCell id="fYEtyLHJQhTUv1WF9Uro-311" value="len" style="rounded=0;whiteSpace=wrap;html=1;fontSize=19;fontStyle=1;fillColor=none;strokeColor=#FF9933;fontColor=#FF8000;strokeWidth=1;" vertex="1" parent="1">
          <mxGeometry x="1937" y="1118" width="181" height="34" as="geometry" />
        </mxCell>
        <mxCell id="fYEtyLHJQhTUv1WF9Uro-312" value="free" style="rounded=0;whiteSpace=wrap;html=1;fontSize=19;strokeColor=#FF9933;fontStyle=1;fontColor=#FF8000;strokeWidth=1;" vertex="1" parent="1">
          <mxGeometry x="1937" y="1152" width="181" height="34" as="geometry" />
        </mxCell>
        <mxCell id="fYEtyLHJQhTUv1WF9Uro-313" value="buf[]:: some-value..." style="rounded=0;whiteSpace=wrap;html=1;fontSize=19;strokeColor=#FF9933;fontColor=#FF8000;strokeWidth=1;" vertex="1" parent="1">
          <mxGeometry x="1937" y="1186" width="181" height="34" as="geometry" />
        </mxCell>
        <mxCell id="fYEtyLHJQhTUv1WF9Uro-314" value="sds" style="text;html=1;align=center;verticalAlign=middle;resizable=0;points=[];autosize=1;fontSize=19;fontColor=#FF9933;" vertex="1" parent="1">
          <mxGeometry x="1933" y="1091" width="40" height="27" as="geometry" />
        </mxCell>
        <mxCell id="fYEtyLHJQhTUv1WF9Uro-315" value="" style="shape=curlyBracket;whiteSpace=wrap;html=1;rounded=1;strokeColor=#b85450;fillColor=#f8cecc;fontSize=19;" vertex="1" parent="1">
          <mxGeometry x="1913" y="1119.75" width="20" height="98.5" as="geometry" />
        </mxCell>
        <mxCell id="fYEtyLHJQhTUv1WF9Uro-316" value="&lt;font style=&quot;font-size: 24px&quot;&gt;Real Object&lt;/font&gt;" style="text;html=1;align=center;verticalAlign=middle;resizable=0;points=[];autosize=1;strokeWidth=11;" vertex="1" parent="1">
          <mxGeometry x="1726" y="1329" width="135" height="22" as="geometry" />
        </mxCell>
        <mxCell id="fYEtyLHJQhTUv1WF9Uro-317" value="&lt;font style=&quot;font-size: 24px&quot;&gt;Real Object&lt;/font&gt;" style="text;html=1;align=center;verticalAlign=middle;resizable=0;points=[];autosize=1;strokeWidth=11;" vertex="1" parent="1">
          <mxGeometry x="1416" y="1149.25" width="135" height="22" as="geometry" />
        </mxCell>
        <mxCell id="fYEtyLHJQhTUv1WF9Uro-318" style="edgeStyle=none;rounded=0;orthogonalLoop=1;jettySize=auto;html=1;exitX=1;exitY=0.25;exitDx=0;exitDy=0;entryX=0;entryY=0.5;entryDx=0;entryDy=0;strokeWidth=1;fontSize=28;fontColor=#FF8000;" edge="1" parent="1" source="fYEtyLHJQhTUv1WF9Uro-321" target="fYEtyLHJQhTUv1WF9Uro-333">
          <mxGeometry relative="1" as="geometry" />
        </mxCell>
        <mxCell id="fYEtyLHJQhTUv1WF9Uro-319" style="edgeStyle=none;rounded=0;orthogonalLoop=1;jettySize=auto;html=1;exitX=1;exitY=0.5;exitDx=0;exitDy=0;entryX=0;entryY=0.5;entryDx=0;entryDy=0;strokeWidth=1;fontSize=28;fontColor=#FF8000;" edge="1" parent="1" source="fYEtyLHJQhTUv1WF9Uro-321" target="fYEtyLHJQhTUv1WF9Uro-334">
          <mxGeometry relative="1" as="geometry" />
        </mxCell>
        <mxCell id="fYEtyLHJQhTUv1WF9Uro-320" style="edgeStyle=none;rounded=0;orthogonalLoop=1;jettySize=auto;html=1;exitX=1;exitY=0.75;exitDx=0;exitDy=0;entryX=0;entryY=0.5;entryDx=0;entryDy=0;strokeWidth=1;fontSize=28;fontColor=#FF8000;" edge="1" parent="1" source="fYEtyLHJQhTUv1WF9Uro-321" target="fYEtyLHJQhTUv1WF9Uro-335">
          <mxGeometry relative="1" as="geometry" />
        </mxCell>
        <mxCell id="fYEtyLHJQhTUv1WF9Uro-321" value="string" style="rounded=0;whiteSpace=wrap;html=1;strokeWidth=1;fontSize=28;fontColor=#FF8000;strokeColor=#FF8000;" vertex="1" parent="1">
          <mxGeometry x="1478" y="1452" width="136" height="41" as="geometry" />
        </mxCell>
        <mxCell id="fYEtyLHJQhTUv1WF9Uro-322" style="edgeStyle=none;rounded=0;orthogonalLoop=1;jettySize=auto;html=1;exitX=1;exitY=0.5;exitDx=0;exitDy=0;strokeWidth=1;fontSize=28;fontColor=#FF8000;" edge="1" parent="1" source="fYEtyLHJQhTUv1WF9Uro-323" target="fYEtyLHJQhTUv1WF9Uro-336">
          <mxGeometry relative="1" as="geometry" />
        </mxCell>
        <mxCell id="fYEtyLHJQhTUv1WF9Uro-323" value="list" style="rounded=0;whiteSpace=wrap;html=1;strokeWidth=1;fontSize=28;fontColor=#FF8000;strokeColor=#FF8000;" vertex="1" parent="1">
          <mxGeometry x="1478" y="1490" width="136" height="35" as="geometry" />
        </mxCell>
        <mxCell id="fYEtyLHJQhTUv1WF9Uro-324" style="edgeStyle=none;rounded=0;orthogonalLoop=1;jettySize=auto;html=1;exitX=1;exitY=0.5;exitDx=0;exitDy=0;entryX=0;entryY=0.5;entryDx=0;entryDy=0;strokeWidth=1;fontSize=28;fontColor=#FF8000;" edge="1" parent="1" source="fYEtyLHJQhTUv1WF9Uro-326" target="fYEtyLHJQhTUv1WF9Uro-337">
          <mxGeometry relative="1" as="geometry" />
        </mxCell>
        <mxCell id="fYEtyLHJQhTUv1WF9Uro-325" style="edgeStyle=none;rounded=0;orthogonalLoop=1;jettySize=auto;html=1;exitX=1;exitY=0.75;exitDx=0;exitDy=0;entryX=0;entryY=0.5;entryDx=0;entryDy=0;strokeWidth=1;fontSize=28;fontColor=#FF8000;" edge="1" parent="1" source="fYEtyLHJQhTUv1WF9Uro-326" target="fYEtyLHJQhTUv1WF9Uro-338">
          <mxGeometry relative="1" as="geometry" />
        </mxCell>
        <mxCell id="fYEtyLHJQhTUv1WF9Uro-326" value="hash" style="rounded=0;whiteSpace=wrap;html=1;strokeWidth=1;fontSize=28;fontColor=#FF8000;strokeColor=#FF8000;" vertex="1" parent="1">
          <mxGeometry x="1478" y="1525" width="136" height="36" as="geometry" />
        </mxCell>
        <mxCell id="fYEtyLHJQhTUv1WF9Uro-327" style="edgeStyle=none;rounded=0;orthogonalLoop=1;jettySize=auto;html=1;exitX=1;exitY=0.5;exitDx=0;exitDy=0;entryX=0;entryY=0.5;entryDx=0;entryDy=0;strokeWidth=1;fontSize=28;fontColor=#FF8000;" edge="1" parent="1" source="fYEtyLHJQhTUv1WF9Uro-329" target="fYEtyLHJQhTUv1WF9Uro-339">
          <mxGeometry relative="1" as="geometry" />
        </mxCell>
        <mxCell id="fYEtyLHJQhTUv1WF9Uro-328" style="edgeStyle=none;rounded=0;orthogonalLoop=1;jettySize=auto;html=1;exitX=1;exitY=0.5;exitDx=0;exitDy=0;entryX=0;entryY=0.5;entryDx=0;entryDy=0;strokeWidth=1;fontSize=28;fontColor=#FF8000;" edge="1" parent="1" source="fYEtyLHJQhTUv1WF9Uro-329" target="fYEtyLHJQhTUv1WF9Uro-337">
          <mxGeometry relative="1" as="geometry" />
        </mxCell>
        <mxCell id="fYEtyLHJQhTUv1WF9Uro-329" value="set" style="rounded=0;whiteSpace=wrap;html=1;strokeWidth=1;fontSize=28;fontColor=#FF8000;strokeColor=#FF8000;" vertex="1" parent="1">
          <mxGeometry x="1478" y="1561" width="136" height="38" as="geometry" />
        </mxCell>
        <mxCell id="fYEtyLHJQhTUv1WF9Uro-330" style="edgeStyle=none;rounded=0;orthogonalLoop=1;jettySize=auto;html=1;exitX=1;exitY=0.5;exitDx=0;exitDy=0;strokeWidth=1;fontSize=28;fontColor=#FF8000;" edge="1" parent="1" source="fYEtyLHJQhTUv1WF9Uro-332" target="fYEtyLHJQhTUv1WF9Uro-338">
          <mxGeometry relative="1" as="geometry" />
        </mxCell>
        <mxCell id="fYEtyLHJQhTUv1WF9Uro-331" style="edgeStyle=none;rounded=0;orthogonalLoop=1;jettySize=auto;html=1;exitX=1;exitY=0.25;exitDx=0;exitDy=0;entryX=0;entryY=0.5;entryDx=0;entryDy=0;strokeWidth=1;fontSize=28;fontColor=#FF8000;" edge="1" parent="1" source="fYEtyLHJQhTUv1WF9Uro-332" target="fYEtyLHJQhTUv1WF9Uro-340">
          <mxGeometry relative="1" as="geometry" />
        </mxCell>
        <mxCell id="fYEtyLHJQhTUv1WF9Uro-332" value="zset" style="rounded=0;whiteSpace=wrap;html=1;strokeWidth=1;fontSize=28;fontColor=#FF8000;strokeColor=#FF8000;" vertex="1" parent="1">
          <mxGeometry x="1478" y="1599" width="136" height="35" as="geometry" />
        </mxCell>
        <mxCell id="fYEtyLHJQhTUv1WF9Uro-333" value="int" style="rounded=0;whiteSpace=wrap;html=1;strokeWidth=1;fontSize=28;strokeColor=#82b366;fillColor=#d5e8d4;" vertex="1" parent="1">
          <mxGeometry x="1729" y="1365" width="136" height="41" as="geometry" />
        </mxCell>
        <mxCell id="fYEtyLHJQhTUv1WF9Uro-334" value="raw" style="rounded=0;whiteSpace=wrap;html=1;strokeWidth=1;fontSize=28;fontColor=#FF8000;strokeColor=#FF8000;" vertex="1" parent="1">
          <mxGeometry x="1729" y="1404" width="136" height="41" as="geometry" />
        </mxCell>
        <mxCell id="fYEtyLHJQhTUv1WF9Uro-335" value="embstr" style="rounded=0;whiteSpace=wrap;html=1;strokeWidth=1;fontSize=28;fontColor=#FF8000;strokeColor=#FF8000;" vertex="1" parent="1">
          <mxGeometry x="1729" y="1445" width="136" height="41" as="geometry" />
        </mxCell>
        <mxCell id="fYEtyLHJQhTUv1WF9Uro-336" value="quicklist" style="rounded=0;whiteSpace=wrap;html=1;strokeWidth=1;fontSize=28;fontColor=#FF8000;strokeColor=#FF8000;" vertex="1" parent="1">
          <mxGeometry x="1729" y="1484" width="136" height="41" as="geometry" />
        </mxCell>
        <mxCell id="fYEtyLHJQhTUv1WF9Uro-337" value="hastable" style="rounded=0;whiteSpace=wrap;html=1;strokeWidth=1;fontSize=28;fontColor=#FF8000;strokeColor=#FF8000;" vertex="1" parent="1">
          <mxGeometry x="1729" y="1525" width="136" height="41" as="geometry" />
        </mxCell>
        <mxCell id="fYEtyLHJQhTUv1WF9Uro-338" value="ziplist" style="rounded=0;whiteSpace=wrap;html=1;strokeWidth=1;fontSize=28;fontColor=#FF8000;strokeColor=#FF8000;" vertex="1" parent="1">
          <mxGeometry x="1729" y="1566" width="136" height="41" as="geometry" />
        </mxCell>
        <mxCell id="fYEtyLHJQhTUv1WF9Uro-339" value="intset" style="rounded=0;whiteSpace=wrap;html=1;strokeWidth=1;fontSize=28;fontColor=#FF8000;strokeColor=#FF8000;" vertex="1" parent="1">
          <mxGeometry x="1729" y="1607" width="136" height="41" as="geometry" />
        </mxCell>
        <mxCell id="fYEtyLHJQhTUv1WF9Uro-340" value="skiplist" style="rounded=0;whiteSpace=wrap;html=1;strokeWidth=1;fontSize=28;fontColor=#FF8000;strokeColor=#FF8000;" vertex="1" parent="1">
          <mxGeometry x="1729" y="1648" width="136" height="41" as="geometry" />
        </mxCell>
        <mxCell id="fYEtyLHJQhTUv1WF9Uro-341" value="string&lt;br&gt;list&lt;br&gt;hash&lt;br&gt;set&lt;br&gt;zset&lt;br&gt;" style="shape=document;whiteSpace=wrap;html=1;boundedLbl=1;strokeColor=#FF8000;strokeWidth=1;fontSize=22;fontColor=#FF8000;align=left;verticalAlign=top;size=0.10062893081761007;spacingLeft=8;" vertex="1" parent="1">
          <mxGeometry x="1712" y="710" width="149" height="159" as="geometry" />
        </mxCell>
        <mxCell id="fYEtyLHJQhTUv1WF9Uro-342" value="raw&lt;br&gt;embstr&lt;br&gt;int&lt;br&gt;ziplist&lt;br&gt;...." style="shape=document;whiteSpace=wrap;html=1;boundedLbl=1;strokeColor=#FF8000;strokeWidth=1;fontSize=22;fontColor=#FF8000;align=left;verticalAlign=top;size=0.11392405063291139;spacingLeft=8;" vertex="1" parent="1">
          <mxGeometry x="1940" y="821" width="139" height="158" as="geometry" />
        </mxCell>
        <mxCell id="fYEtyLHJQhTUv1WF9Uro-343" value="type" style="rounded=0;whiteSpace=wrap;html=1;fontSize=26;fontStyle=1;fillColor=none;strokeColor=#FF9933;fontColor=#FF8000;" vertex="1" parent="1">
          <mxGeometry x="1143" y="1428.25" width="181" height="34" as="geometry" />
        </mxCell>
        <mxCell id="fYEtyLHJQhTUv1WF9Uro-344" value="encoding" style="rounded=0;whiteSpace=wrap;html=1;fontSize=26;strokeColor=#FF9933;fontStyle=1;fontColor=#FF8000;" vertex="1" parent="1">
          <mxGeometry x="1143" y="1462.25" width="181" height="34" as="geometry" />
        </mxCell>
        <mxCell id="fYEtyLHJQhTUv1WF9Uro-345" value="lru:LRU_BITS" style="rounded=0;whiteSpace=wrap;html=1;fontSize=19;strokeColor=#FF9933;" vertex="1" parent="1">
          <mxGeometry x="1143" y="1496.25" width="181" height="34" as="geometry" />
        </mxCell>
        <mxCell id="fYEtyLHJQhTUv1WF9Uro-346" value="refcount" style="rounded=0;whiteSpace=wrap;html=1;fontSize=19;strokeColor=#FF9933;" vertex="1" parent="1">
          <mxGeometry x="1143" y="1530.25" width="181" height="34" as="geometry" />
        </mxCell>
        <mxCell id="fYEtyLHJQhTUv1WF9Uro-347" style="edgeStyle=none;rounded=0;orthogonalLoop=1;jettySize=auto;html=1;exitX=1;exitY=0.5;exitDx=0;exitDy=0;entryX=0.1;entryY=0.5;entryDx=0;entryDy=0;entryPerimeter=0;strokeWidth=1;fontSize=22;fontColor=#FF8000;" edge="1" parent="1" source="fYEtyLHJQhTUv1WF9Uro-348" target="fYEtyLHJQhTUv1WF9Uro-303">
          <mxGeometry relative="1" as="geometry" />
        </mxCell>
        <mxCell id="fYEtyLHJQhTUv1WF9Uro-348" value="*ptr" style="rounded=0;whiteSpace=wrap;html=1;fontSize=26;strokeColor=#FF9933;fontStyle=1;fontColor=#FF8000;" vertex="1" parent="1">
          <mxGeometry x="1143" y="1564.25" width="181" height="34" as="geometry" />
        </mxCell>
        <mxCell id="fYEtyLHJQhTUv1WF9Uro-349" value="" style="shape=curlyBracket;whiteSpace=wrap;html=1;rounded=1;strokeColor=#b85450;fillColor=#f8cecc;fontSize=19;" vertex="1" parent="1">
          <mxGeometry x="1123" y="1427.5" width="20" height="171.5" as="geometry" />
        </mxCell>
        <mxCell id="fYEtyLHJQhTUv1WF9Uro-350" value="redisObject" style="text;html=1;align=center;verticalAlign=middle;resizable=0;points=[];autosize=1;fontSize=26;fontColor=#FF9933;fontStyle=1" vertex="1" parent="1">
          <mxGeometry x="1537" y="908" width="153" height="35" as="geometry" />
        </mxCell>
        <mxCell id="fYEtyLHJQhTUv1WF9Uro-351" value="redisObject" style="text;html=1;align=center;verticalAlign=middle;resizable=0;points=[];autosize=1;fontSize=26;fontColor=#FF9933;fontStyle=1" vertex="1" parent="1">
          <mxGeometry x="1123" y="1377" width="153" height="35" as="geometry" />
        </mxCell>
        <mxCell id="fYEtyLHJQhTUv1WF9Uro-352" value="0" style="rounded=0;whiteSpace=wrap;html=1;strokeColor=#FF9933;fillColor=none;fontSize=19;fontColor=#FF9933;" vertex="1" parent="1">
          <mxGeometry x="630" y="884" width="126" height="46" as="geometry" />
        </mxCell>
        <mxCell id="fYEtyLHJQhTUv1WF9Uro-353" value="1" style="rounded=0;whiteSpace=wrap;html=1;strokeColor=#FF9933;fillColor=none;fontSize=19;fontColor=#FF9933;" vertex="1" parent="1">
          <mxGeometry x="630" y="930" width="126" height="46" as="geometry" />
        </mxCell>
        <mxCell id="fYEtyLHJQhTUv1WF9Uro-354" value="2" style="rounded=0;whiteSpace=wrap;html=1;strokeColor=#FF9933;fillColor=none;fontSize=19;fontColor=#FF9933;" vertex="1" parent="1">
          <mxGeometry x="630" y="976" width="126" height="46" as="geometry" />
        </mxCell>
        <mxCell id="fYEtyLHJQhTUv1WF9Uro-355" value="3" style="rounded=0;whiteSpace=wrap;html=1;strokeColor=#FF9933;fillColor=none;fontSize=19;fontColor=#FF9933;" vertex="1" parent="1">
          <mxGeometry x="630" y="1022" width="126" height="46" as="geometry" />
        </mxCell>
        <mxCell id="fYEtyLHJQhTUv1WF9Uro-356" value="4" style="rounded=0;whiteSpace=wrap;html=1;strokeColor=#FF9933;fillColor=none;fontSize=19;fontColor=#FF9933;" vertex="1" parent="1">
          <mxGeometry x="630" y="1068.25" width="126" height="46" as="geometry" />
        </mxCell>
        <mxCell id="fYEtyLHJQhTUv1WF9Uro-357" value="5" style="rounded=0;whiteSpace=wrap;html=1;strokeColor=#FF9933;fillColor=none;fontSize=19;fontColor=#FF9933;" vertex="1" parent="1">
          <mxGeometry x="630" y="1114.25" width="126" height="46" as="geometry" />
        </mxCell>
        <mxCell id="fYEtyLHJQhTUv1WF9Uro-358" value="6" style="rounded=0;whiteSpace=wrap;html=1;strokeColor=#FF9933;fillColor=none;fontSize=19;fontColor=#FF9933;" vertex="1" parent="1">
          <mxGeometry x="630" y="1160.25" width="126" height="46" as="geometry" />
        </mxCell>
        <mxCell id="fYEtyLHJQhTUv1WF9Uro-359" value="7" style="rounded=0;whiteSpace=wrap;html=1;strokeColor=#FF9933;fillColor=none;fontSize=19;fontColor=#FF9933;" vertex="1" parent="1">
          <mxGeometry x="630" y="1206.25" width="126" height="46" as="geometry" />
        </mxCell>
      </root>
    </mxGraphModel>
  </diagram>
</mxfile>
